<svg  xmlns="http://www.w3.org/2000/svg"
x="0px" y="0px"
width="375.0px" height="186.25px"
viewBox="0 0 3000 1490">
<defs>
<radialGradient id="grad1" cx="50%" cy="50%" r="50%" fx="30%" fy="40%">
    <stop offset="0%" stop-color="antiquewhite" />
    <stop offset="80%" stop-color="Darkgreen" />
</radialGradient>
<linearGradient id="rodgrad" >
    <stop offset="5%" stop-color="BurlyWood" />
    <stop offset="95%" stop-color="#3f1010" />
</linearGradient>
<linearGradient id="rodgrad2" gradientTransform="rotate(90)">
    <stop offset="5%" stop-color="BurlyWood" />
    <stop offset="95%" stop-color="#3f1010" />
</linearGradient>

<linearGradient id="jap1" >
    <stop offset="5%" stop-color="BurlyWood" />
    <stop offset="95%" stop-color="#3f0010" />
</linearGradient>
<linearGradient id="jap2">
    <stop offset="5%" stop-color="#250000" />
    <stop offset="95%" stop-color="Peru" />
</linearGradient>

<g id="bead">
	<polygon fill="url(#jap1)" stroke="#F2F2F2" points="80,0 5,60 195,60 119,0"/>
	<polygon fill="url(#jap2)" stroke="#F2F2F2" points="119,120 195,60 5,60 80,120"/>
</g>

<g id="bead2">
	<ellipse cx="100" cy="60" rx="90" ry="59.5" fill="url(#grad1)" stroke="#F2F2F2"/>
</g>


<g id="frame">
    <rect y="0" fill="url(#rodgrad2)" width="202" height="120"/> 
</g>

<g id="bar">
	<rect x="0" y="0" width="202" height="50" fill="Maroon" />
	<rect x="-1" y="10" fill="AntiqueWhite" width="202" height="30"/>
</g>

<g id="bardot">
    <use href="#bar"/>
	<circle cx="100" cy="25" r="12" stroke="black" stroke-width="3" fill="green" />
</g>

</defs>
<rect width="2760" height="1490" 
        x="80" y="0" fill="Ivory"/>
<!-- Rod #1 -->
<rect x="288" y="0.5" fill="url(#rodgrad)" 
    stroke="#F2F2F2" width="24" height="1490"/>
<use href="#frame" x="200" y="0"/>
<use href="#frame" x="200" y="1370"/>
<use href="#bardot" x="200" y="600"/>
<use href="#bead2" x="200" y="120"/>
<use href="#bead2" x="200" y="240"/>
<use href="#bead2" x="200" y="360"/>
<use href="#bead2" x="200" y="770"/>
<use href="#bead2" x="200" y="890"/>
<use href="#bead2" x="200" y="1010"/>
<use href="#bead2" x="200" y="1130"/>
<use href="#bead2" x="200" y="1250"/>
<!-- Rod #2 -->
<rect x="488" y="0.5" fill="url(#rodgrad)" 
    stroke="#F2F2F2" width="24" height="1490"/>
<use href="#frame" x="400" y="0"/>
<use href="#frame" x="400" y="1370"/>
<use href="#bar" x="400" y="600"/>
<use href="#bead2" x="400" y="120"/>
<use href="#bead2" x="400" y="240"/>
<use href="#bead2" x="400" y="360"/>
<use href="#bead2" x="400" y="770"/>
<use href="#bead2" x="400" y="890"/>
<use href="#bead2" x="400" y="1010"/>
<use href="#bead2" x="400" y="1130"/>
<use href="#bead2" x="400" y="1250"/>
<!-- Rod #3 -->
<rect x="688" y="0.5" fill="url(#rodgrad)" 
    stroke="#F2F2F2" width="24" height="1490"/>
<use href="#frame" x="600" y="0"/>
<use href="#frame" x="600" y="1370"/>
<use href="#bar" x="600" y="600"/>
<use href="#bead2" x="600" y="120"/>
<use href="#bead2" x="600" y="240"/>
<use href="#bead2" x="600" y="360"/>
<use href="#bead2" x="600" y="770"/>
<use href="#bead2" x="600" y="890"/>
<use href="#bead2" x="600" y="1010"/>
<use href="#bead2" x="600" y="1130"/>
<use href="#bead2" x="600" y="1250"/>
<!-- Rod #4 -->
<rect x="888" y="0.5" fill="url(#rodgrad)" 
    stroke="#F2F2F2" width="24" height="1490"/>
<use href="#frame" x="800" y="0"/>
<use href="#frame" x="800" y="1370"/>
<use href="#bardot" x="800" y="600"/>
<use href="#bead2" x="800" y="120"/>
<use href="#bead2" x="800" y="240"/>
<use href="#bead2" x="800" y="360"/>
<use href="#bead2" x="800" y="770"/>
<use href="#bead2" x="800" y="890"/>
<use href="#bead2" x="800" y="1010"/>
<use href="#bead2" x="800" y="1130"/>
<use href="#bead2" x="800" y="1250"/>
<!-- Rod #5 -->
<rect x="1088" y="0.5" fill="url(#rodgrad)" 
    stroke="#F2F2F2" width="24" height="1490"/>
<use href="#frame" x="1000" y="0"/>
<use href="#frame" x="1000" y="1370"/>
<use href="#bar" x="1000" y="600"/>
<use href="#bead2" x="1000" y="120"/>
<use href="#bead2" x="1000" y="240"/>
<use href="#bead2" x="1000" y="360"/>
<use href="#bead2" x="1000" y="770"/>
<use href="#bead2" x="1000" y="890"/>
<use href="#bead2" x="1000" y="1010"/>
<use href="#bead2" x="1000" y="1130"/>
<use href="#bead2" x="1000" y="1250"/>
<!-- Rod #6 -->
<rect x="1288" y="0.5" fill="url(#rodgrad)" 
    stroke="#F2F2F2" width="24" height="1490"/>
<use href="#frame" x="1200" y="0"/>
<use href="#frame" x="1200" y="1370"/>
<use href="#bar" x="1200" y="600"/>
<use href="#bead2" x="1200" y="120"/>
<use href="#bead2" x="1200" y="240"/>
<use href="#bead2" x="1200" y="360"/>
<use href="#bead2" x="1200" y="770"/>
<use href="#bead2" x="1200" y="890"/>
<use href="#bead2" x="1200" y="1010"/>
<use href="#bead2" x="1200" y="1130"/>
<use href="#bead2" x="1200" y="1250"/>
<!-- Rod #7 -->
<rect x="1488" y="0.5" fill="url(#rodgrad)" 
    stroke="#F2F2F2" width="24" height="1490"/>
<use href="#frame" x="1400" y="0"/>
<use href="#frame" x="1400" y="1370"/>
<use href="#bardot" x="1400" y="600"/>
<use href="#bead2" x="1400" y="120"/>
<use href="#bead2" x="1400" y="240"/>
<use href="#bead2" x="1400" y="480"/>
<use href="#bead2" x="1400" y="770"/>
<use href="#bead2" x="1400" y="890"/>
<use href="#bead2" x="1400" y="1010"/>
<use href="#bead2" x="1400" y="1130"/>
<use href="#bead2" x="1400" y="1250"/>
<!-- Rod #8 -->
<rect x="1688" y="0.5" fill="url(#rodgrad)" 
    stroke="#F2F2F2" width="24" height="1490"/>
<use href="#frame" x="1600" y="0"/>
<use href="#frame" x="1600" y="1370"/>
<use href="#bar" x="1600" y="600"/>
<use href="#bead2" x="1600" y="120"/>
<use href="#bead2" x="1600" y="240"/>
<use href="#bead2" x="1600" y="360"/>
<use href="#bead2" x="1600" y="650"/>
<use href="#bead2" x="1600" y="890"/>
<use href="#bead2" x="1600" y="1010"/>
<use href="#bead2" x="1600" y="1130"/>
<use href="#bead2" x="1600" y="1250"/>
<!-- Rod #9 -->
<rect x="1888" y="0.5" fill="url(#rodgrad)" 
    stroke="#F2F2F2" width="24" height="1490"/>
<use href="#frame" x="1800" y="0"/>
<use href="#frame" x="1800" y="1370"/>
<use href="#bar" x="1800" y="600"/>
<use href="#bead2" x="1800" y="120"/>
<use href="#bead2" x="1800" y="240"/>
<use href="#bead2" x="1800" y="360"/>
<use href="#bead2" x="1800" y="650"/>
<use href="#bead2" x="1800" y="770"/>
<use href="#bead2" x="1800" y="1010"/>
<use href="#bead2" x="1800" y="1130"/>
<use href="#bead2" x="1800" y="1250"/>
<!-- Rod #10 -->
<rect x="2088" y="0.5" fill="url(#rodgrad)" 
    stroke="#F2F2F2" width="24" height="1490"/>
<use href="#frame" x="2000" y="0"/>
<use href="#frame" x="2000" y="1370"/>
<use href="#bardot" x="2000" y="600"/>
<use href="#bead2" x="2000" y="120"/>
<use href="#bead2" x="2000" y="240"/>
<use href="#bead2" x="2000" y="360"/>
<use href="#bead2" x="2000" y="650"/>
<use href="#bead2" x="2000" y="770"/>
<use href="#bead2" x="2000" y="890"/>
<use href="#bead2" x="2000" y="1130"/>
<use href="#bead2" x="2000" y="1250"/>
<!-- Rod #11 -->
<rect x="2288" y="0.5" fill="url(#rodgrad)" 
    stroke="#F2F2F2" width="24" height="1490"/>
<use href="#frame" x="2200" y="0"/>
<use href="#frame" x="2200" y="1370"/>
<use href="#bar" x="2200" y="600"/>
<use href="#bead2" x="2200" y="120"/>
<use href="#bead2" x="2200" y="240"/>
<use href="#bead2" x="2200" y="360"/>
<use href="#bead2" x="2200" y="650"/>
<use href="#bead2" x="2200" y="770"/>
<use href="#bead2" x="2200" y="890"/>
<use href="#bead2" x="2200" y="1010"/>
<use href="#bead2" x="2200" y="1250"/>
<!-- Rod #12 -->
<rect x="2488" y="0.5" fill="url(#rodgrad)" 
    stroke="#F2F2F2" width="24" height="1490"/>
<use href="#frame" x="2400" y="0"/>
<use href="#frame" x="2400" y="1370"/>
<use href="#bar" x="2400" y="600"/>
<use href="#bead2" x="2400" y="120"/>
<use href="#bead2" x="2400" y="240"/>
<use href="#bead2" x="2400" y="480"/>
<use href="#bead2" x="2400" y="650"/>
<use href="#bead2" x="2400" y="770"/>
<use href="#bead2" x="2400" y="890"/>
<use href="#bead2" x="2400" y="1010"/>
<use href="#bead2" x="2400" y="1250"/>
<!-- Rod #13 -->
<rect x="2688" y="0.5" fill="url(#rodgrad)" 
    stroke="#F2F2F2" width="24" height="1490"/>
<use href="#frame" x="2600" y="0"/>
<use href="#frame" x="2600" y="1370"/>
<use href="#bardot" x="2600" y="600"/>
<use href="#bead2" x="2600" y="120"/>
<use href="#bead2" x="2600" y="240"/>
<use href="#bead2" x="2600" y="360"/>
<use href="#bead2" x="2600" y="650"/>
<use href="#bead2" x="2600" y="890"/>
<use href="#bead2" x="2600" y="1010"/>
<use href="#bead2" x="2600" y="1130"/>
<use href="#bead2" x="2600" y="1250"/>
<rect x="80" y="0" fill="url(#rodgrad)" 
    width="120" height="1490"/>
<polygon fill="url(#rodgrad2)" points="80,0 200,120 200,0"/>
<line x1="80" y1="0" x2="200" y2="120" 
    stroke="black" stroke-width="4"/>
<polygon fill="url(#rodgrad2)" points="80,1490 
    200,1370 200,1490"/>
<line x1="80" y1="1490" x2="200" y2="1370" 
    stroke="black" stroke-width="4"/>
<rect x="2800" y="0" fill="url(#rodgrad)" 
    width="120" height="1490"/>
<polygon fill="url(#rodgrad2)" points="2800,120 
    2920,0 2800,0"/>
<line x1="2800" y1="120" x2="2920" y2="0" 
    stroke="black" stroke-width="4"/>
<polygon fill="url(#rodgrad2)" points="2800,
    1370 2920,1490 2800,1490"/>
<line x1="2800" y1="1370" 
    x2="2920" y2="1490" stroke="black" stroke-width="4"/>
</svg>
